<svg width="16" height="16" viewBox="0 0 16 16" fill="none" xmlns="http://www.w3.org/2000/svg">
<path d="M5.33387 14.6667H10.6672C13.3472 14.6667 13.8272 13.5933 13.9672 12.2867L14.4672 6.95333C14.6472 5.32667 14.1805 4 11.3339 4H4.6672C1.82054 4 1.35387 5.32667 1.53387 6.95333L2.03387 12.2867C2.17387 13.5933 2.65387 14.6667 5.33387 14.6667Z" stroke="#191F38" stroke-width="1.25" stroke-miterlimit="10" stroke-linecap="round" stroke-linejoin="round"/>
<path d="M5.33203 3.9987V3.46536C5.33203 2.28536 5.33203 1.33203 7.46536 1.33203H8.53203C10.6654 1.33203 10.6654 2.28536 10.6654 3.46536V3.9987" stroke="#191F38" stroke-width="1.25" stroke-miterlimit="10" stroke-linecap="round" stroke-linejoin="round"/>
<path d="M9.33464 8.66667V9.33333C9.33464 9.34 9.33464 9.34 9.33464 9.34667C9.33464 10.0733 9.32797 10.6667 8.0013 10.6667C6.6813 10.6667 6.66797 10.08 6.66797 9.35333V8.66667C6.66797 8 6.66797 8 7.33464 8H8.66797C9.33464 8 9.33464 8 9.33464 8.66667Z" stroke="#191F38" stroke-width="1.25" stroke-miterlimit="10" stroke-linecap="round" stroke-linejoin="round"/>
<path d="M14.432 7.33203C12.892 8.45203 11.132 9.1187 9.33203 9.34536" stroke="#191F38" stroke-width="1.25" stroke-miterlimit="10" stroke-linecap="round" stroke-linejoin="round"/>
<path d="M1.74609 7.51172C3.24609 8.53839 4.93943 9.15838 6.66609 9.35172" stroke="#191F38" stroke-width="1.25" stroke-miterlimit="10" stroke-linecap="round" stroke-linejoin="round"/>
</svg>
