<svg width="16" height="16" viewBox="0 0 16 16" fill="none" xmlns="http://www.w3.org/2000/svg">
<path d="M8.66536 14.6654H3.33203C1.9987 14.6654 1.33203 13.9987 1.33203 12.6654V7.33203C1.33203 5.9987 1.9987 5.33203 3.33203 5.33203H6.66536V12.6654C6.66536 13.9987 7.33203 14.6654 8.66536 14.6654Z" stroke="#697588" stroke-width="1.25" stroke-miterlimit="10" stroke-linecap="round" stroke-linejoin="round"/>
<path d="M6.73869 2.66797C6.68535 2.86797 6.66536 3.08797 6.66536 3.33464V5.33464H3.33203V4.0013C3.33203 3.26797 3.93203 2.66797 4.66536 2.66797H6.73869Z" stroke="#697588" stroke-width="1.25" stroke-miterlimit="10" stroke-linecap="round" stroke-linejoin="round"/>
<path d="M9.33203 5.33203V8.66536" stroke="#697588" stroke-width="1.25" stroke-miterlimit="10" stroke-linecap="round" stroke-linejoin="round"/>
<path d="M12 5.33203V8.66536" stroke="#697588" stroke-width="1.25" stroke-miterlimit="10" stroke-linecap="round" stroke-linejoin="round"/>
<path d="M11.332 11.332H9.9987C9.63203 11.332 9.33203 11.632 9.33203 11.9987V14.6654H11.9987V11.9987C11.9987 11.632 11.6987 11.332 11.332 11.332Z" stroke="#697588" stroke-width="1.25" stroke-miterlimit="10" stroke-linecap="round" stroke-linejoin="round"/>
<path d="M4 8.66797V11.3346" stroke="#697588" stroke-width="1.25" stroke-miterlimit="10" stroke-linecap="round" stroke-linejoin="round"/>
<path d="M6.66797 12.6654V3.33203C6.66797 1.9987 7.33464 1.33203 8.66797 1.33203H12.668C14.0013 1.33203 14.668 1.9987 14.668 3.33203V12.6654C14.668 13.9987 14.0013 14.6654 12.668 14.6654H8.66797C7.33464 14.6654 6.66797 13.9987 6.66797 12.6654Z" stroke="#697588" stroke-width="1.25" stroke-miterlimit="10" stroke-linecap="round" stroke-linejoin="round"/>
</svg>
