<svg width="16" height="16" viewBox="0 0 16 16" fill="none" xmlns="http://www.w3.org/2000/svg">
<path d="M6.66536 3.9987H9.33203C10.6654 3.9987 10.6654 3.33203 10.6654 2.66536C10.6654 1.33203 9.9987 1.33203 9.33203 1.33203H6.66536C5.9987 1.33203 5.33203 1.33203 5.33203 2.66536C5.33203 3.9987 5.9987 3.9987 6.66536 3.9987Z" stroke="#4157FE" stroke-width="1.25" stroke-miterlimit="10" stroke-linecap="round" stroke-linejoin="round"/>
<path d="M9.33333 14.6664H6C2.66667 14.6664 2 13.333 2 10.6664V6.66635C2 3.62635 3.11333 2.79969 5.33333 2.67969" stroke="#4157FE" stroke-width="1.25" stroke-miterlimit="10" stroke-linecap="round" stroke-linejoin="round"/>
<path d="M10.668 2.67969C12.888 2.79969 14.0013 3.61969 14.0013 6.66635V9.99969" stroke="#4157FE" stroke-width="1.25" stroke-miterlimit="10" stroke-linecap="round" stroke-linejoin="round"/>
<path d="M14 12.668V14.668H12" stroke="#4157FE" stroke-width="1.25" stroke-miterlimit="10" stroke-linecap="round" stroke-linejoin="round"/>
<path d="M10 10.668L13.9733 14.6413" stroke="#4157FE" stroke-width="1.25" stroke-miterlimit="10" stroke-linecap="round" stroke-linejoin="round"/>
</svg>
