<svg width="16" height="16" viewBox="0 0 16 16" fill="none" xmlns="http://www.w3.org/2000/svg">
<path d="M1.66797 8H14.3346" stroke="#697588" stroke-width="1.25" stroke-linecap="round" stroke-linejoin="round"/>
<path d="M9.33333 1.33398H6.66667C6.48986 1.33398 6.32029 1.40422 6.19526 1.52925C6.07024 1.65427 6 1.82384 6 2.00065V4.66732C6 4.84413 6.07024 5.0137 6.19526 5.13872C6.32029 5.26375 6.48986 5.33398 6.66667 5.33398H9.33333C9.51014 5.33398 9.67971 5.26375 9.80474 5.13872C9.92976 5.0137 10 4.84413 10 4.66732V2.00065C10 1.82384 9.92976 1.65427 9.80474 1.52925C9.67971 1.40422 9.51014 1.33398 9.33333 1.33398ZM5.33333 10.6673H2.66667C2.48986 10.6673 2.32029 10.7376 2.19526 10.8626C2.07024 10.9876 2 11.1572 2 11.334V14.0007C2 14.1775 2.07024 14.347 2.19526 14.4721C2.32029 14.5971 2.48986 14.6673 2.66667 14.6673H5.33333C5.51014 14.6673 5.67971 14.5971 5.80474 14.4721C5.92976 14.347 6 14.1775 6 14.0007V11.334C6 11.1572 5.92976 10.9876 5.80474 10.8626C5.67971 10.7376 5.51014 10.6673 5.33333 10.6673ZM13.3333 10.6673H10.6667C10.4899 10.6673 10.3203 10.7376 10.1953 10.8626C10.0702 10.9876 10 11.1572 10 11.334V14.0007C10 14.1775 10.0702 14.347 10.1953 14.4721C10.3203 14.5971 10.4899 14.6673 10.6667 14.6673H13.3333C13.5101 14.6673 13.6797 14.5971 13.8047 14.4721C13.9298 14.347 14 14.1775 14 14.0007V11.334C14 11.1572 13.9298 10.9876 13.8047 10.8626C13.6797 10.7376 13.5101 10.6673 13.3333 10.6673Z" stroke="#697588" stroke-width="1.25" stroke-linejoin="round"/>
<path d="M8 8.00065V5.33398M12 10.6673V8.00065M4 10.6673V8.00065" stroke="#697588" stroke-width="1.25" stroke-linecap="round" stroke-linejoin="round"/>
</svg>
