<svg width="16" height="16" viewBox="0 0 16 16" fill="none" xmlns="http://www.w3.org/2000/svg">
<path fill-rule="evenodd" clip-rule="evenodd" d="M4.52857 4.5284C4.65358 4.40342 4.82312 4.33321 4.9999 4.33321C5.17667 4.33321 5.34621 4.40342 5.47123 4.5284L7.9999 7.05707L10.5286 4.5284C10.5901 4.46473 10.6636 4.41394 10.745 4.379C10.8263 4.34406 10.9138 4.32567 11.0023 4.3249C11.0908 4.32413 11.1786 4.341 11.2605 4.37452C11.3425 4.40804 11.4169 4.45754 11.4795 4.52014C11.5421 4.58273 11.5916 4.65717 11.6251 4.7391C11.6586 4.82103 11.6755 4.90882 11.6747 4.99733C11.674 5.08585 11.6556 5.17333 11.6206 5.25467C11.5857 5.33601 11.5349 5.40957 11.4712 5.47107L8.94256 7.99973L11.4712 10.5284C11.5927 10.6541 11.6599 10.8225 11.6583 10.9973C11.6568 11.1721 11.5867 11.3393 11.4631 11.4629C11.3395 11.5866 11.1723 11.6567 10.9975 11.6582C10.8227 11.6597 10.6543 11.5925 10.5286 11.4711L7.9999 8.9424L5.47123 11.4711C5.3455 11.5925 5.1771 11.6597 5.0023 11.6582C4.8275 11.6567 4.66029 11.5866 4.53669 11.4629C4.41308 11.3393 4.34297 11.1721 4.34145 10.9973C4.33993 10.8225 4.40713 10.6541 4.52857 10.5284L7.05723 7.99973L4.52857 5.47107C4.40358 5.34605 4.33337 5.17651 4.33337 4.99973C4.33337 4.82296 4.40358 4.65342 4.52857 4.5284Z" fill="#697588"/>
</svg>
