<svg width="34" height="34" viewBox="0 0 34 34" fill="none" xmlns="http://www.w3.org/2000/svg">
<path d="M28.6999 14.2667H24.6539C21.336 14.2667 18.634 11.5648 18.634 8.24677V4.20078C18.634 3.43078 18.004 2.80078 17.234 2.80078H11.298C6.98599 2.80078 3.5 5.60077 3.5 10.5988V23.0027C3.5 28.0007 6.98599 30.8007 11.298 30.8007H22.3019C26.6139 30.8007 30.0999 28.0007 30.0999 23.0027V15.6667C30.0999 14.8967 29.4699 14.2667 28.6999 14.2667ZM16.142 18.9427C15.932 19.1527 15.666 19.2507 15.4 19.2507C15.134 19.2507 14.868 19.1527 14.658 18.9427L13.65 17.9347V23.8007C13.65 24.3747 13.174 24.8507 12.6 24.8507C12.026 24.8507 11.55 24.3747 11.55 23.8007V17.9347L10.542 18.9427C10.136 19.3487 9.46398 19.3487 9.05798 18.9427C8.65199 18.5367 8.65199 17.8647 9.05798 17.4587L11.858 14.6587C11.956 14.5747 12.054 14.5047 12.166 14.4487C12.194 14.4347 12.236 14.4207 12.264 14.4067C12.348 14.3787 12.432 14.3647 12.53 14.3507C12.572 14.3507 12.6 14.3507 12.642 14.3507C12.754 14.3507 12.866 14.3787 12.978 14.4207C12.992 14.4207 12.992 14.4207 13.006 14.4207C13.118 14.4627 13.23 14.5467 13.314 14.6307C13.328 14.6447 13.342 14.6447 13.342 14.6587L16.142 17.4587C16.548 17.8647 16.548 18.5367 16.142 18.9427Z" fill="#4157FE"/>
<path d="M24.4008 12.335C25.7308 12.349 27.5788 12.349 29.1608 12.349C29.9588 12.349 30.3788 11.411 29.8188 10.851C27.8028 8.82105 24.1908 5.16706 22.1188 3.09506C21.5448 2.52107 20.5508 2.91306 20.5508 3.71106V8.59705C20.5508 10.641 22.2868 12.335 24.4008 12.335Z" fill="#4157FE"/>
</svg>
