<svg width="16" height="16" viewBox="0 0 16 16" fill="none" xmlns="http://www.w3.org/2000/svg">
<path d="M5.78125 9.55319C5.78125 10.4132 6.44125 11.1065 7.26125 11.1065L8.93458 11.1065C9.64792 11.1065 10.2279 10.4999 10.2279 9.75319C10.2279 8.93986 9.87459 8.65319 9.34792 8.46652L6.66125 7.53319C6.13459 7.34652 5.78125 7.05986 5.78125 6.24652C5.78125 5.49986 6.36125 4.89319 7.07459 4.89319L8.74792 4.89319C9.56792 4.89319 10.2279 5.58652 10.2279 6.44652" stroke="#4157FE" stroke-width="1.25" stroke-linecap="round" stroke-linejoin="round"/>
<path d="M8 4L8 12" stroke="#4157FE" stroke-width="1.25" stroke-linecap="round" stroke-linejoin="round"/>
<path d="M7.99992 14.6667C11.6818 14.6667 14.6666 11.6819 14.6666 8.00004C14.6666 4.31814 11.6818 1.33338 7.99992 1.33338C4.31802 1.33337 1.33325 4.31814 1.33325 8.00004C1.33325 11.6819 4.31802 14.6667 7.99992 14.6667Z" stroke="#4157FE" stroke-width="1.25" stroke-linecap="round" stroke-linejoin="round"/>
</svg>
