<svg width="14" height="14" viewBox="0 0 14 14" fill="none" xmlns="http://www.w3.org/2000/svg">
<path d="M6.26922 1.43C6.67755 1.08583 7.33672 1.08583 7.73339 1.43L8.65505 2.2175C8.83005 2.36333 9.16255 2.48583 9.39589 2.48583H10.3876C11.0059 2.48583 11.5134 2.99333 11.5134 3.61167V4.60333C11.5134 4.83667 11.6359 5.16333 11.7817 5.33833L12.5692 6.26C12.9134 6.66833 12.9134 7.3275 12.5692 7.72417L11.7817 8.64583C11.6359 8.82083 11.5134 9.1475 11.5134 9.38083V10.3725C11.5134 10.9908 11.0059 11.4983 10.3876 11.4983H9.39589C9.16255 11.4983 8.83589 11.6208 8.66089 11.7667L7.73922 12.5542C7.33089 12.8983 6.67172 12.8983 6.27505 12.5542L5.35339 11.7667C5.17839 11.6208 4.84589 11.4983 4.61839 11.4983H3.59755C2.97922 11.4983 2.47172 10.9908 2.47172 10.3725V9.375C2.47172 9.1475 2.35505 8.815 2.20922 8.64583L1.42172 7.71833C1.08339 7.31583 1.08339 6.6625 1.42172 6.26L2.20922 5.3325C2.35505 5.1575 2.47172 4.83083 2.47172 4.60333V3.6175C2.47172 2.99917 2.97922 2.49167 3.59755 2.49167H4.60672C4.84005 2.49167 5.16672 2.36917 5.34172 2.22333L6.26922 1.43Z" stroke="#C81C57" stroke-width="1.25" stroke-linecap="round" stroke-linejoin="round"/>
<path d="M7 4.74219V7.55969" stroke="#C81C57" stroke-width="1.25" stroke-linecap="round" stroke-linejoin="round"/>
<path d="M6.99609 9.33203H7.00133" stroke="#C81C57" stroke-width="1.25" stroke-linecap="round" stroke-linejoin="round"/>
</svg>
