<svg width="16" height="16" viewBox="0 0 16 16" fill="none" xmlns="http://www.w3.org/2000/svg">
<path d="M12.3145 11.2207L12.5745 13.3273C12.6412 13.8806 12.0479 14.2673 11.5745 13.9806L8.7812 12.3206C8.47453 12.3206 8.17454 12.3007 7.8812 12.2607C8.37454 11.6807 8.66787 10.9473 8.66787 10.154C8.66787 8.26064 7.02787 6.72734 5.0012 6.72734C4.22787 6.72734 3.51454 6.94732 2.9212 7.33398C2.9012 7.16732 2.89453 7.00064 2.89453 6.82731C2.89453 3.79398 5.52787 1.33398 8.7812 1.33398C12.0345 1.33398 14.6679 3.79398 14.6679 6.82731C14.6679 8.62731 13.7412 10.2207 12.3145 11.2207Z" stroke="#697588" stroke-width="1.36719" stroke-linecap="round" stroke-linejoin="round"/>
<path d="M8.66536 10.1532C8.66536 10.9465 8.37204 11.6799 7.8787 12.2599C7.2187 13.0599 6.17203 13.5732 4.9987 13.5732L3.2587 14.6065C2.96536 14.7865 2.59203 14.5399 2.63203 14.1999L2.7987 12.8866C1.90536 12.2666 1.33203 11.2732 1.33203 10.1532C1.33203 8.97986 1.9587 7.94654 2.9187 7.33321C3.51203 6.94654 4.22536 6.72656 4.9987 6.72656C7.02536 6.72656 8.66536 8.25987 8.66536 10.1532Z" stroke="#697588" stroke-width="1.36719" stroke-linecap="round" stroke-linejoin="round"/>
</svg>
