<svg width="14" height="14" viewBox="0 0 14 14" fill="none" xmlns="http://www.w3.org/2000/svg">
<path d="M10.7738 9.81881L11.0013 11.6621C11.0596 12.1463 10.5404 12.4846 10.1263 12.2338L7.68208 10.7813C7.41375 10.7813 7.15126 10.7638 6.89459 10.7288C7.32626 10.2213 7.58292 9.57962 7.58292 8.88546C7.58292 7.22879 6.14792 5.88715 4.37459 5.88715C3.69792 5.88715 3.07375 6.07963 2.55459 6.41797C2.53709 6.27213 2.53125 6.1263 2.53125 5.97463C2.53125 3.32046 4.83542 1.16797 7.68208 1.16797C10.5288 1.16797 12.8329 3.32046 12.8329 5.97463C12.8329 7.54963 12.0221 8.94381 10.7738 9.81881Z" stroke="#4157FE" stroke-width="1.25" stroke-linecap="round" stroke-linejoin="round"/>
<path d="M7.58463 8.88502C7.58463 9.57919 7.32797 10.2209 6.89631 10.7284C6.31881 11.4284 5.40297 11.8775 4.3763 11.8775L2.8538 12.7817C2.59713 12.9392 2.27047 12.7234 2.30547 12.4259L2.4513 11.2767C1.66963 10.7342 1.16797 9.86502 1.16797 8.88502C1.16797 7.85836 1.7163 6.9542 2.5563 6.41754C3.07547 6.0792 3.69964 5.88672 4.3763 5.88672C6.14963 5.88672 7.58463 7.22836 7.58463 8.88502Z" stroke="#4157FE" stroke-width="1.25" stroke-linecap="round" stroke-linejoin="round"/>
</svg>
