<svg width="15" height="15" viewBox="0 0 15 15" fill="none" xmlns="http://www.w3.org/2000/svg">
<path d="M7.29297 7.29167V8.625M3.29297 9.625C3.29297 9.44819 3.36321 9.27862 3.48823 9.1536C3.61326 9.02857 3.78282 8.95833 3.95964 8.95833H10.6263C10.8031 8.95833 10.9727 9.02857 11.0977 9.1536C11.2227 9.27862 11.293 9.44819 11.293 9.625C11.293 9.97862 11.1525 10.3178 10.9024 10.5678C10.6524 10.8179 10.3133 10.9583 9.95964 10.9583H4.6263C4.27268 10.9583 3.93354 10.8179 3.68349 10.5678C3.43344 10.3178 3.29297 9.97862 3.29297 9.625ZM3.71164 3.80233C3.87297 2.461 3.95297 1.791 4.34097 1.333C4.46405 1.18761 4.60728 1.06055 4.7663 0.955667C5.2663 0.625 5.9423 0.625 7.29297 0.625C8.64364 0.625 9.31897 0.625 9.81964 0.955667C9.97866 1.06055 10.1219 1.18761 10.245 1.333C10.633 1.791 10.7136 2.461 10.8743 3.80233L10.935 4.307C11.1016 5.699 11.1856 6.395 10.7876 6.843C10.3896 7.29167 9.68897 7.29167 8.28764 7.29167H6.29897C4.89697 7.29167 4.1963 7.29167 3.79897 6.843C3.40097 6.395 3.4843 5.699 3.65097 4.307L3.71164 3.80233Z" stroke="#697588" stroke-width="1.25"/>
<path d="M7.29167 13.957V12.6237M7.29167 12.6237V10.957M7.29167 12.6237L7.60233 12.701C7.91578 12.7794 8.20438 12.9356 8.44141 13.1551C8.67845 13.3747 8.85624 13.6505 8.95833 13.957M7.29167 12.6237L6.981 12.701C6.66755 12.7794 6.37895 12.9356 6.14192 13.1551C5.90488 13.3747 5.72709 13.6505 5.625 13.957M3.29167 9.95703L2.715 8.22703C2.66633 8.08036 2.64167 8.00703 2.595 7.9057C2.56413 7.83728 2.52849 7.77111 2.48833 7.7077C2.185 7.2077 1.781 6.95703 0.625 6.95703M11.2917 9.95703L11.8683 8.22703C11.917 8.08036 11.9417 8.00703 11.9883 7.9057C12.0363 7.8037 12.055 7.7717 12.095 7.7077C12.399 7.2077 12.8037 6.95703 13.9583 6.95703" stroke="#697588" stroke-width="1.25" stroke-linecap="round"/>
</svg>
