<svg width="16" height="16" viewBox="0 0 16 16" fill="none" xmlns="http://www.w3.org/2000/svg">
<path d="M3.33334 3.99992C3.33334 3.82311 3.2631 3.65354 3.13807 3.52851C3.01305 3.40349 2.84348 3.33325 2.66667 3.33325C2.48986 3.33325 2.32029 3.40349 2.19526 3.52851C2.07024 3.65354 2 3.82311 2 3.99992L2 11.9999C2 12.1767 2.07024 12.3463 2.19526 12.4713C2.32029 12.5964 2.48986 12.6666 2.66667 12.6666C2.84348 12.6666 3.01305 12.5964 3.13807 12.4713C3.2631 12.3463 3.33333 12.1767 3.33333 11.9999L3.33334 3.99992ZM8.46867 11.2999C8.53065 11.238 8.57983 11.1645 8.61338 11.0835C8.64692 11.0026 8.66419 10.9159 8.66419 10.8283C8.66419 10.7406 8.64692 10.6539 8.61338 10.573C8.57983 10.492 8.53065 10.4185 8.46867 10.3566L6.778 8.66659L13.3333 8.66659C13.5101 8.66659 13.6797 8.59635 13.8047 8.47133C13.9298 8.3463 14 8.17673 14 7.99992C14 7.82311 13.9298 7.65354 13.8047 7.52852C13.6797 7.40349 13.5101 7.33325 13.3333 7.33325L6.778 7.33325L8.46867 5.64259C8.59367 5.51749 8.66387 5.34786 8.6638 5.17102C8.66374 4.99417 8.59343 4.82459 8.46834 4.69959C8.34324 4.57458 8.17361 4.50439 7.99677 4.50445C7.81992 4.50451 7.65034 4.57483 7.52534 4.69992L4.69734 7.52859C4.57235 7.65361 4.50214 7.82314 4.50214 7.99992C4.50214 8.1767 4.57235 8.34624 4.69734 8.47125L7.52533 11.2999C7.58725 11.3619 7.66078 11.4111 7.74171 11.4446C7.82264 11.4782 7.90939 11.4954 7.997 11.4954C8.08461 11.4954 8.17136 11.4782 8.25229 11.4446C8.33323 11.4111 8.40675 11.3619 8.46867 11.2999Z" fill="#697588"/>
</svg>
