<svg width="16" height="16" viewBox="0 0 16 16" fill="none" xmlns="http://www.w3.org/2000/svg">
<path d="M4.00008 6.00001H8.00008M2.66675 3.33334H5.33342M4.00008 3.33334V10.6667C4.00008 10.8435 4.07032 11.0131 4.19534 11.1381C4.32037 11.2631 4.48994 11.3333 4.66675 11.3333H8.00008M8.00008 5.33334C8.00008 5.15653 8.07032 4.98696 8.19534 4.86194C8.32037 4.73691 8.48994 4.66668 8.66675 4.66668H12.6667C12.8436 4.66668 13.0131 4.73691 13.1382 4.86194C13.2632 4.98696 13.3334 5.15653 13.3334 5.33334V6.66668C13.3334 6.84349 13.2632 7.01306 13.1382 7.13808C13.0131 7.2631 12.8436 7.33334 12.6667 7.33334H8.66675C8.48994 7.33334 8.32037 7.2631 8.19534 7.13808C8.07032 7.01306 8.00008 6.84349 8.00008 6.66668V5.33334ZM8.00008 10.6667C8.00008 10.4899 8.07032 10.3203 8.19534 10.1953C8.32037 10.0702 8.48994 10 8.66675 10H12.6667C12.8436 10 13.0131 10.0702 13.1382 10.1953C13.2632 10.3203 13.3334 10.4899 13.3334 10.6667V12C13.3334 12.1768 13.2632 12.3464 13.1382 12.4714C13.0131 12.5964 12.8436 12.6667 12.6667 12.6667H8.66675C8.48994 12.6667 8.32037 12.5964 8.19534 12.4714C8.07032 12.3464 8.00008 12.1768 8.00008 12V10.6667Z" stroke="#697588" stroke-width="1.25" stroke-linecap="round" stroke-linejoin="round"/>
</svg>
