<svg width="16" height="16" viewBox="0 0 16 16" fill="none" xmlns="http://www.w3.org/2000/svg">
<path d="M8.00008 8.00001C9.84103 8.00001 11.3334 6.50763 11.3334 4.66668C11.3334 2.82573 9.84103 1.33334 8.00008 1.33334C6.15913 1.33334 4.66675 2.82573 4.66675 4.66668C4.66675 6.50763 6.15913 8.00001 8.00008 8.00001Z" stroke="#9BA2AD" stroke-width="1.25" stroke-linecap="round" stroke-linejoin="round"/>
<path d="M2.27344 14.6667C2.27344 12.0867 4.8401 10 8.0001 10C8.6401 10 9.26011 10.0867 9.84011 10.2467" stroke="#9BA2AD" stroke-width="1.25" stroke-linecap="round" stroke-linejoin="round"/>
<path d="M14.6666 12C14.6666 12.2133 14.6399 12.42 14.5866 12.62C14.5266 12.8867 14.4199 13.1467 14.2799 13.3733C13.8199 14.1467 12.9733 14.6667 11.9999 14.6667C11.3133 14.6667 10.6932 14.4067 10.2266 13.98C10.0266 13.8067 9.85324 13.6 9.71991 13.3733C9.47324 12.9733 9.33325 12.5 9.33325 12C9.33325 11.28 9.61992 10.62 10.0866 10.14C10.5733 9.64002 11.2533 9.33334 11.9999 9.33334C12.7866 9.33334 13.4999 9.67335 13.9799 10.22C14.4066 10.6934 14.6666 11.32 14.6666 12Z" stroke="#9BA2AD" stroke-width="1.25" stroke-miterlimit="10" stroke-linecap="round" stroke-linejoin="round"/>
<path d="M12.9932 11.9866H11.0066" stroke="#9BA2AD" stroke-width="1.25" stroke-miterlimit="10" stroke-linecap="round" stroke-linejoin="round"/>
<path d="M12 11.0133V13.0067" stroke="#9BA2AD" stroke-width="1.25" stroke-miterlimit="10" stroke-linecap="round" stroke-linejoin="round"/>
</svg>
